# xmcd
#
# Track frame offsets:
#	150
#	15251
#	31850
#	46077
#	58702
#	70204
#	85332
#	102413
#	125341
#	138227
#	151693
#	169182
#	182148
#
# Disc length: 2658 seconds
#
# Revision: 1
# Processed by: cddbd v1.5.1PL0 Copyright (c) Steve Scherf et al.
# Submitted via: EasyCDDAExtractor 6.0.0.1
#
DISCID=9d0a600d
DTITLE=Country Crew - White Cross
DYEAR=1997
DGENRE=Country
TTITLE0=White cross in the roadside
TTITLE1=Got to go home
TTITLE2=My song
TTITLE3=If I could ever talk to you again
TTITLE4=Joe
TTITLE5=My beloved wife
TTITLE6=The Dane
TTITLE7=Thunder in my mind
TTITLE8=You played me like a guitar
TTITLE9=You call it love
TTITLE10=Country Crew on the road
TTITLE11=Radiostar
TTITLE12=I wanna stay with daddy
EXTD=
EXTT0=
EXTT1=
EXTT2=
EXTT3=
EXTT4=
EXTT5=
EXTT6=
EXTT7=
EXTT8=
EXTT9=
EXTT10=
EXTT11=
EXTT12=
PLAYORDER=
